<?xml version="1.0" encoding="utf-8"?>
<!-- Generator: Adobe Illustrator 24.0.2, SVG Export Plug-In . SVG Version: 6.00 Build 0)  -->
<svg version="1.1" id="Calque_1" xmlns="http://www.w3.org/2000/svg" xmlns:xlink="http://www.w3.org/1999/xlink" x="0px" y="0px"
	 viewBox="0 0 100 100" style="enable-background:new 0 0 100 100;" xml:space="preserve">
<style type="text/css">
	.st0{fill-rule:evenodd;clip-rule:evenodd;fill:#98D5C2;}
	.st1{fill-rule:evenodd;clip-rule:evenodd;fill:#355FA9;}
	.st2{fill-rule:evenodd;clip-rule:evenodd;fill:#476EB1;}
	.st3{fill-rule:evenodd;clip-rule:evenodd;fill:#5A7CB8;}
	.st4{fill-rule:evenodd;clip-rule:evenodd;fill:#6C8AC0;}
	.st5{fill-rule:evenodd;clip-rule:evenodd;fill:#7E98C8;}
	.st6{fill-rule:evenodd;clip-rule:evenodd;fill:#90A7D0;}
	.st7{fill-rule:evenodd;clip-rule:evenodd;fill:#A2B5D7;}
	.st8{fill-rule:evenodd;clip-rule:evenodd;fill:#B5C4DF;}
	.st9{fill-rule:evenodd;clip-rule:evenodd;fill:#C7D2E7;}
	.st10{fill-rule:evenodd;clip-rule:evenodd;fill:#D9E1EF;}
	.st11{fill-rule:evenodd;clip-rule:evenodd;fill:#ECEFF6;}
	.st12{fill-rule:evenodd;clip-rule:evenodd;fill:#FFFFFF;}
	.st13{fill-rule:evenodd;clip-rule:evenodd;fill:#FAAF3B;}
	.st14{fill-rule:evenodd;clip-rule:evenodd;fill:#FAB64D;}
	.st15{fill-rule:evenodd;clip-rule:evenodd;fill:#FBBD5F;}
	.st16{fill-rule:evenodd;clip-rule:evenodd;fill:#FBC570;}
	.st17{fill-rule:evenodd;clip-rule:evenodd;fill:#FBCC81;}
	.st18{fill-rule:evenodd;clip-rule:evenodd;fill:#FCD393;}
	.st19{fill-rule:evenodd;clip-rule:evenodd;fill:#FCDAA5;}
	.st20{fill-rule:evenodd;clip-rule:evenodd;fill:#FDE1B7;}
	.st21{fill-rule:evenodd;clip-rule:evenodd;fill:#FDE8C9;}
	.st22{fill-rule:evenodd;clip-rule:evenodd;fill:#FDF0DA;}
	.st23{fill-rule:evenodd;clip-rule:evenodd;fill:#FFF7EC;}
	.st24{fill-rule:evenodd;clip-rule:evenodd;fill:#4F4F4F;}
	.st25{fill-rule:evenodd;clip-rule:evenodd;fill:#5F5F5F;}
	.st26{fill-rule:evenodd;clip-rule:evenodd;fill:#6F6F6F;}
	.st27{fill-rule:evenodd;clip-rule:evenodd;fill:#7F7F7F;}
	.st28{fill-rule:evenodd;clip-rule:evenodd;fill:#8E8E8E;}
	.st29{fill-rule:evenodd;clip-rule:evenodd;fill:#9E9E9E;}
	.st30{fill-rule:evenodd;clip-rule:evenodd;fill:#AEAEAE;}
	.st31{fill-rule:evenodd;clip-rule:evenodd;fill:#BEBEBE;}
	.st32{fill-rule:evenodd;clip-rule:evenodd;fill:#CECECE;}
	.st33{fill-rule:evenodd;clip-rule:evenodd;fill:#DEDEDE;}
	.st34{fill-rule:evenodd;clip-rule:evenodd;fill:#EEEEEE;}
	.st35{fill-rule:evenodd;clip-rule:evenodd;}
	.st36{fill-rule:evenodd;clip-rule:evenodd;fill:#05090F;}
	.st37{fill-rule:evenodd;clip-rule:evenodd;fill:#0A111F;}
	.st38{fill-rule:evenodd;clip-rule:evenodd;fill:#0E1A2E;}
	.st39{fill-rule:evenodd;clip-rule:evenodd;fill:#13233E;}
	.st40{fill-rule:evenodd;clip-rule:evenodd;fill:#182B4D;}
	.st41{fill-rule:evenodd;clip-rule:evenodd;fill:#1D345D;}
	.st42{fill-rule:evenodd;clip-rule:evenodd;fill:#223C6C;}
	.st43{fill-rule:evenodd;clip-rule:evenodd;fill:#27457C;}
	.st44{fill-rule:evenodd;clip-rule:evenodd;fill:#2B4E8A;}
	.st45{fill-rule:evenodd;clip-rule:evenodd;fill:#30569A;}
	.st46{fill-rule:evenodd;clip-rule:evenodd;fill:#171005;}
	.st47{fill-rule:evenodd;clip-rule:evenodd;fill:#2E200B;}
	.st48{fill-rule:evenodd;clip-rule:evenodd;fill:#443010;}
	.st49{fill-rule:evenodd;clip-rule:evenodd;fill:#5B4015;}
	.st50{fill-rule:evenodd;clip-rule:evenodd;fill:#72501B;}
	.st51{fill-rule:evenodd;clip-rule:evenodd;fill:#886020;}
	.st52{fill-rule:evenodd;clip-rule:evenodd;fill:#9F7026;}
	.st53{fill-rule:evenodd;clip-rule:evenodd;fill:#B6802B;}
	.st54{fill-rule:evenodd;clip-rule:evenodd;fill:#CC8F30;}
	.st55{fill-rule:evenodd;clip-rule:evenodd;fill:#E39F36;}
	.st56{fill-rule:evenodd;clip-rule:evenodd;fill:#070707;}
	.st57{fill-rule:evenodd;clip-rule:evenodd;fill:#0E0E0E;}
	.st58{fill-rule:evenodd;clip-rule:evenodd;fill:#161616;}
	.st59{fill-rule:evenodd;clip-rule:evenodd;fill:#1D1D1D;}
	.st60{fill-rule:evenodd;clip-rule:evenodd;fill:#242424;}
	.st61{fill-rule:evenodd;clip-rule:evenodd;fill:#2B2B2B;}
	.st62{fill-rule:evenodd;clip-rule:evenodd;fill:#323232;}
	.st63{fill-rule:evenodd;clip-rule:evenodd;fill:#393939;}
	.st64{fill-rule:evenodd;clip-rule:evenodd;fill:#414141;}
	.st65{fill-rule:evenodd;clip-rule:evenodd;fill:#484848;}
	.st66{fill:none;stroke:#FFFFFF;stroke-width:3;stroke-miterlimit:10;}
	.st67{fill:#E3E2FE;}
	.st68{fill:#FAB64D;}
	.st69{fill:#5A7CB8;}
	.st70{fill:#CFCFF6;}
	.st71{fill:#FAAF3B;}
	.st72{fill:#355FA9;}
	.st73{fill:#476EB1;}
	.st74{fill:#FBCC81;}
</style>
<g id="Calque_2_2_">
	<g id="Calque_2_1_">
		<g>
			<g id="COULEUR">
				<rect x="10.9" y="-71.2" class="st0" width="80.1" height="38.5"/>
				<g>
					<rect x="13.9" y="-40.5" class="st1" width="4.5" height="4.5"/>
					<rect x="20.2" y="-40.5" class="st2" width="4.5" height="4.5"/>
					<rect x="26.5" y="-40.5" class="st3" width="4.5" height="4.5"/>
					<rect x="32.9" y="-40.5" class="st4" width="4.5" height="4.5"/>
					<rect x="39.2" y="-40.5" class="st5" width="4.5" height="4.5"/>
					<rect x="45.5" y="-40.5" class="st6" width="4.5" height="4.5"/>
					<rect x="51.9" y="-40.5" class="st7" width="4.5" height="4.5"/>
					<rect x="58.2" y="-40.5" class="st8" width="4.5" height="4.5"/>
					<rect x="64.5" y="-40.5" class="st9" width="4.5" height="4.5"/>
					<rect x="70.9" y="-40.5" class="st10" width="4.5" height="4.5"/>
					<rect x="77.2" y="-40.5" class="st11" width="4.5" height="4.5"/>
					<rect x="83.5" y="-40.5" class="st12" width="4.5" height="4.5"/>
				</g>
				<g>
					<rect x="13.9" y="-51.5" class="st13" width="4.5" height="4.5"/>
					<rect x="20.2" y="-51.5" class="st14" width="4.5" height="4.5"/>
					<rect x="26.5" y="-51.5" class="st15" width="4.5" height="4.5"/>
					<rect x="32.9" y="-51.5" class="st16" width="4.5" height="4.5"/>
					<rect x="39.2" y="-51.5" class="st17" width="4.5" height="4.5"/>
					<rect x="45.5" y="-51.5" class="st18" width="4.5" height="4.5"/>
					<rect x="51.9" y="-51.5" class="st19" width="4.5" height="4.5"/>
					<rect x="58.2" y="-51.5" class="st20" width="4.5" height="4.5"/>
					<rect x="64.5" y="-51.5" class="st21" width="4.5" height="4.5"/>
					<rect x="70.9" y="-51.5" class="st22" width="4.5" height="4.5"/>
					<rect x="77.2" y="-51.5" class="st23" width="4.5" height="4.5"/>
					<rect x="83.5" y="-51.5" class="st12" width="4.5" height="4.5"/>
				</g>
				<g>
					<g>
						<rect x="13.9" y="-46" class="st24" width="4.5" height="4.5"/>
					</g>
					<g>
						<rect x="20.2" y="-46" class="st25" width="4.5" height="4.5"/>
					</g>
					<g>
						<rect x="26.5" y="-46" class="st26" width="4.5" height="4.5"/>
					</g>
					<g>
						<rect x="32.9" y="-46" class="st27" width="4.5" height="4.5"/>
					</g>
					<g>
						<rect x="39.2" y="-46" class="st28" width="4.5" height="4.5"/>
					</g>
					<g>
						<rect x="45.5" y="-46" class="st29" width="4.5" height="4.5"/>
					</g>
					<g>
						<rect x="51.9" y="-46" class="st30" width="4.5" height="4.5"/>
					</g>
					<g>
						<rect x="58.2" y="-46" class="st31" width="4.5" height="4.5"/>
					</g>
					<g>
						<rect x="64.5" y="-46" class="st32" width="4.5" height="4.5"/>
					</g>
					<g>
						<rect x="70.9" y="-46" class="st33" width="4.5" height="4.5"/>
					</g>
					<g>
						<rect x="77.2" y="-46" class="st34" width="4.5" height="4.5"/>
					</g>
					<g>
						<rect x="83.5" y="-46" class="st12" width="4.5" height="4.5"/>
					</g>
				</g>
				<g>
					<rect x="13.9" y="-57.5" class="st35" width="4.5" height="4.5"/>
					<rect x="20.2" y="-57.5" class="st36" width="4.5" height="4.5"/>
					<rect x="26.5" y="-57.5" class="st37" width="4.5" height="4.5"/>
					<rect x="32.9" y="-57.5" class="st38" width="4.5" height="4.5"/>
					<rect x="39.2" y="-57.5" class="st39" width="4.5" height="4.5"/>
					<rect x="45.5" y="-57.5" class="st40" width="4.5" height="4.5"/>
					<rect x="51.9" y="-57.5" class="st41" width="4.5" height="4.5"/>
					<rect x="58.2" y="-57.5" class="st42" width="4.5" height="4.5"/>
					<rect x="64.5" y="-57.5" class="st43" width="4.5" height="4.5"/>
					<rect x="70.9" y="-57.5" class="st44" width="4.5" height="4.5"/>
					<rect x="77.2" y="-57.5" class="st45" width="4.5" height="4.5"/>
					<rect x="83.5" y="-57.5" class="st1" width="4.5" height="4.5"/>
				</g>
				<g>
					<g>
						<g>
							<rect x="13.9" y="-68.6" class="st35" width="4.5" height="4.5"/>
						</g>
					</g>
					<g>
						<g>
							<rect x="20.2" y="-68.6" class="st46" width="4.5" height="4.5"/>
						</g>
					</g>
					<g>
						<g>
							<rect x="26.5" y="-68.6" class="st47" width="4.5" height="4.5"/>
						</g>
					</g>
					<g>
						<g>
							<rect x="32.9" y="-68.6" class="st48" width="4.5" height="4.5"/>
						</g>
					</g>
					<g>
						<g>
							<rect x="39.2" y="-68.6" class="st49" width="4.5" height="4.5"/>
						</g>
					</g>
					<g>
						<g>
							<rect x="45.5" y="-68.6" class="st50" width="4.5" height="4.5"/>
						</g>
					</g>
					<g>
						<g>
							<rect x="51.9" y="-68.6" class="st51" width="4.5" height="4.5"/>
						</g>
					</g>
					<g>
						<g>
							<rect x="58.2" y="-68.6" class="st52" width="4.5" height="4.5"/>
						</g>
					</g>
					<g>
						<g>
							<rect x="64.5" y="-68.6" class="st53" width="4.5" height="4.5"/>
						</g>
					</g>
					<g>
						<g>
							<rect x="70.9" y="-68.6" class="st54" width="4.5" height="4.5"/>
						</g>
					</g>
					<g>
						<g>
							<rect x="77.2" y="-68.6" class="st55" width="4.5" height="4.5"/>
						</g>
					</g>
					<g>
						<g>
							<rect x="83.5" y="-68.6" class="st13" width="4.5" height="4.5"/>
						</g>
					</g>
				</g>
				<g>
					<g>
						<rect x="13.9" y="-63" class="st35" width="4.5" height="4.5"/>
					</g>
					<g>
						<rect x="20.2" y="-63" class="st56" width="4.5" height="4.5"/>
					</g>
					<g>
						<rect x="26.5" y="-63" class="st57" width="4.5" height="4.5"/>
					</g>
					<g>
						<rect x="32.9" y="-63" class="st58" width="4.5" height="4.5"/>
					</g>
					<g>
						<rect x="39.2" y="-63" class="st59" width="4.5" height="4.5"/>
					</g>
					<g>
						<rect x="45.5" y="-63" class="st60" width="4.5" height="4.5"/>
					</g>
					<g>
						<rect x="51.9" y="-63" class="st61" width="4.5" height="4.5"/>
					</g>
					<g>
						<rect x="58.2" y="-63" class="st62" width="4.5" height="4.5"/>
					</g>
					<g>
						<rect x="64.5" y="-63" class="st63" width="4.5" height="4.5"/>
					</g>
					<g>
						<rect x="70.9" y="-63" class="st64" width="4.5" height="4.5"/>
					</g>
					<g>
						<rect x="77.2" y="-63" class="st65" width="4.5" height="4.5"/>
					</g>
					<g>
						<rect x="83.5" y="-63" class="st24" width="4.5" height="4.5"/>
					</g>
				</g>
			</g>
			<line class="st66" x1="60.4" y1="-28.7" x2="88" y2="-28.7"/>
		</g>
	</g>
</g>
<g>
	<path class="st67" d="M13.5,93.5c-0.7-1.4-0.9-2.8-0.9-4.3c0-9.6,0-19.2,0-28.8c1.7-1.7,3.6-3.3,5.4-4.9c2.6-2.3,5.1-4.7,7.7-7
		c3.5-3,6.8-6.2,10.3-9.3c2.5-2.3,5-4.5,7.5-6.7c1.8-1.6,3.7-3.4,5.5-5c0.7-0.7,1.3-0.5,2,0c1.7,1.6,3.5,3.1,5.3,4.8
		c3.4,3,6.8,6.2,10.2,9.2c2.5,2.3,5,4.6,7.5,6.8c2.5,2.3,5,4.7,7.6,6.8c1.2,1,1.7,2.1,1.7,3.6c-0.1,9-0.1,18,0,27c0,3.8-3,8-7.6,8.6
		c-4,0.4-7.9,0.1-11.9,0.2c-0.3,0-0.7,0-0.9-0.3c-0.2-0.5-0.1-1.1-0.1-1.5c0-4.7-0.1-9.3,0-13.9c0.1-4.3-1.1-7.9-4.1-11.1
		c-4-3.5-8.6-4.5-13.6-2.5c-4.7,1.8-7.2,5.4-7.9,10.3c-0.1,0.5-0.1,1.1-0.1,1.7c0,5.2,0,10.4,0,15.6c0,0.5,0.2,1.2-0.4,1.6
		c-0.4,0.2-1,0.2-1.4,0.2c-5.6,0-11.2,0-16.8,0C16.7,94.6,14.9,94.6,13.5,93.5z"/>
	<path class="st68" d="M30.2,18.2c4.7-4.2,9.3-8.4,13.9-12.6c3.7-3.4,7.9-3.4,11.5,0c13.6,12.3,27.1,24.5,40.7,36.8
		c1.5,1.3,2.7,2.8,3.1,4.9c-2,5.8-8.7,7.4-13.2,3.4c-5.2-4.7-10.3-9.3-15.4-14c-4.5-4-8.9-8-13.2-11.9c-2.1-1.8-4.1-3.7-6.2-5.5
		c-0.9-0.8-2-0.8-2.8,0c-3.9,3.6-7.8,7.2-11.7,10.6c-4.8,4.2-9.4,8.5-14.1,12.7c-3,2.7-6.1,5.5-9.2,8.3C9.6,54.3,3.3,53,0.9,48.4
		c-0.2-0.4-0.3-0.9-0.4-1.3c0.4-1.8,1.5-3.3,2.8-4.5c3.3-2.9,6.5-5.9,9.8-8.8c0.4-0.4,0.8-0.9,0.9-1.5c1-0.7,2-1.4,2.7-2.2
		c1.1-1,2.2-2.1,3.4-3c1-0.9,1.8-1.7,2.8-2.6c1.4-1.1,2.7-2.4,4-3.6c1-0.9,2-1.8,2.9-2.7C29.9,18.3,30,18.2,30.2,18.2z"/>
	<path class="st69" d="M58.8,67.4c2.7,2.6,4.2,5.8,4.2,9.6c0,5.4,0,10.8,0,16.2c0,0.4,0,0.8,0,1.2c0.4,1.4,0.5,2.8-0.1,4.2
		c-7.4,0-14.9,0-22.3,0c-0.3-0.3-0.3-0.9-0.3-1.3c0-6.1-0.2-12.2,0-18.2c0.2-5.1,2.8-8.8,7.3-11.2c2.7-1.4,5.8-1.6,8.8-1.2
		C57.4,66.8,58.2,67.2,58.8,67.4z"/>
	<path class="st70" d="M63,98.5c0-1.4,0-2.8,0.1-4.2c3.6,0,7.2,0.1,10.9,0c4.2-0.1,7.7-2.3,8.9-6.5c0.1-0.4,0.2-0.9,0.2-1.2
		c0-9.6,0-19.1,0-28.7c0-1.2-0.8-1.6-1.4-2.3c-1.7-1.6-3.6-3.1-5.3-4.8c-3.5-3.1-7.1-6.3-10.5-9.4c-2.5-2.3-5-4.7-7.6-7
		s-5.1-4.6-7.7-6.8c-0.4-0.3-0.7-0.3-1.1,0c-2.8,2.6-5.8,5.2-8.6,7.8c-4,3.6-7.9,7.2-11.9,10.6c-1.7,1.6-3.5,3.1-5.2,4.8
		c-3.5,3.1-7.1,6.3-10.5,9.4c-0.1,0.1-0.3,0.1-0.4,0.2c0-1.7,0-3.4,0-5.1c0.3-0.9,1.1-1.3,1.7-1.8c1.7-1.5,3.5-3.1,5.3-4.8
		c3.5-3.1,7.1-6.3,10.5-9.4c2.5-2.3,5-4.5,7.5-6.7c2.6-2.3,5.2-4.7,7.8-7.1c1.2-1.1,2.4-2.1,3.5-3.3c0.9-0.9,1.3-0.8,2.2,0
		c4.2,3.9,8.6,7.7,12.8,11.6c3.4,3,6.7,6.1,10,9.1c4.2,3.9,8.6,7.7,12.8,11.5c0.2,0.2,0.7,0.3,0.5,0.8c0,11.4,0,22.8,0,34.2
		c0,5.2-4.2,9.2-9.1,9.1C73.1,98.4,68.1,98.5,63,98.5z"/>
	<path class="st71" d="M87.3,55.3c-10-9-20-18-30-27c-2.3-2.1-4.5-4-6.6-6.1c-0.5-0.5-0.9-0.4-1.4,0C41,29.8,32.6,37.3,24.4,44.8
		c-3.9,3.5-7.8,7.1-11.7,10.5c-3.8,2.4-7.4,1.5-9.7-0.4c-2.4-2.1-3.3-4.7-2.5-7.8c0.5,0.8,0.9,1.6,1.4,2.5c2.7,3.8,8.4,3.9,11.6,0.9
		c3.8-3.6,7.8-7.1,11.7-10.5c1.6-1.4,3.3-2.9,4.9-4.5c3.5-3.1,7-6.3,10.4-9.3c1.6-1.4,3.3-2.9,4.9-4.5c1.1-1,2.1-2,3.1-2.8
		c0.9-0.9,2.2-0.8,3,0.1c3.3,2.9,6.4,5.9,9.7,8.8c2.9,2.7,5.9,5.3,8.8,8c3.6,3.3,7.3,6.5,10.9,9.8c2,1.7,3.9,3.5,5.9,5.3
		c3.8,3.4,10.1,2,12.2-2.7c0.1-0.3,0.2-0.7,0.5-0.8c1.1,3.9-1.8,8.5-6,9.3C91.3,57.1,89.2,56.5,87.3,55.3z"/>
	<path class="st72" d="M58.8,67.4c-1,0.2-1.7-0.4-2.7-0.5c-3.8-0.5-7.3,0.2-10.2,2.6c-3.6,2.8-5.1,6.5-5.1,11c0.1,6.1,0,12.1,0,18.1
		c-1.3,0-2.7,0-4,0c-0.5-1.4-0.5-2.8-0.1-4.2c0-5.8,0-11.4,0-17.2c0-7.3,5.6-13.1,12.9-13.2C53.2,63.8,56.3,65,58.8,67.4z"/>
	<path class="st73" d="M13.8,32.2c0-4.8,0-9.4,0-14.2c0-1.5,0-3.1,0-4.7c0.3-0.3,0.7-0.3,1.1-0.3c2.7,0,5.5,0,8.3,0
		c2.5,0,4.3,1.6,4.8,4c0.3,1.5-0.1,3-1.3,4c-3.5,3.1-7,6.2-10.3,9.3c-0.5,0.5-1.3,1-1.8,1.6C14.4,32.3,14.2,32.4,13.8,32.2z"/>
	<path class="st73" d="M13.6,11.9c-1.6,0-2.1-0.4-2.1-2s0-3.1,0-4.7c0-1.2,0.5-1.7,1.7-1.7c5.8,0,11.5,0,17.3,0
		c1.2,0,1.7,0.5,1.7,1.8c0,1.5,0,3,0,4.6s-0.5,2-2.1,2c-0.4,0.3-0.9,0.3-1.3,0.3c-4.7,0-9.3,0-14,0C14.5,12.1,14.1,12.2,13.6,11.9z"
		/>
	<path class="st70" d="M36.8,94.3c0,1.4,0,2.8,0.1,4.2c-5.3,0-10.8,0.1-16.1,0c-3.4-0.1-5.8-2.1-7.3-5c3.4,1.2,6.8,0.8,10.3,0.9
		C28.2,94.4,32.4,94.3,36.8,94.3z"/>
	<path class="st72" d="M13.8,32.2c0.4,0,0.7-0.3,0.9-0.5c3.6-3.3,7.2-6.4,10.8-9.7c1-0.9,2-1.8,2.3-3.4c0.5-2.8-1.8-5.3-4.3-5.3
		c-3.1,0-6.3,0-9.6,0l0,0c-0.1-1.4-0.1-1.4,1.2-1.4c4.7,0,9.3,0,14,0c0.8,0,1.1,0.2,1,1c-0.1,1.8,0.1,3.7-0.1,5.4
		c-1.2,1-2.3,2.2-3.6,3.1c-1,0.9-2,1.7-2.9,2.6c-0.4,0.4-1.1,0.9-1.4,1.3c-1,1.1-2.2,2-3.1,3C18,29.3,17,30,16,30.9
		c-0.5,0.5-1.2,0.8-1.6,1.4C14.1,32.7,13.8,32.6,13.8,32.2C13.8,32.3,13.8,32.3,13.8,32.2z"/>
	<path class="st73" d="M30,18.4c0-1.7,0-3.4,0-5.1c0-1-0.2-1.3-1.3-1.3c-4.6,0.1-9,0.1-13.6,0c-1.1,0-1.5,0.3-1.4,1.3
		c-0.3-0.4,0-1-0.2-1.5c5.5,0,11.1,0,16.6,0C29.9,13.8,30,16,30,18.1C30.1,18.3,30,18.4,30,18.4z"/>
	<path class="st69" d="M58.7,40.2c2.8,3.9,2.1,9.6-1.5,12.8c-3.8,3.4-9.4,3.4-13.1-0.1c-2.8-4.8-0.4-12.6,6.6-14.2
		c2.7-0.7,5.2-0.2,7.6,1.3C58.4,40.1,58.5,40.2,58.7,40.2z"/>
	<path class="st72" d="M58.7,40.2c-0.3,0.4-0.7,0-0.9-0.1c-3.3-1.8-6.5-1.8-9.7,0c-3.1,1.7-4.8,4.6-5,8.1c-0.1,1.7,0.4,3.3,0.9,4.9
		c-2.8-2.5-3.8-5.6-3-9.2c0.8-3.9,3.3-6.4,7.1-7.5C52.1,35.1,56.3,36.7,58.7,40.2z"/>
	<path class="st74" d="M19.7,35.2c0-0.3,0.2-0.7,0.5-1c3.3-2.9,6.4-5.9,9.7-8.8c0.7-0.5,1.4-0.5,2.1,0c0.7,0.5,0.7,1.6,0,2.2
		c-2.1,2-4.2,3.9-6.4,5.9c-1.1,1-2.2,2-3.3,2.8c-0.4,0.4-1,0.7-1.6,0.3C20.1,36.4,19.8,36,19.7,35.2z"/>
	<path class="st74" d="M35.2,21.3c0.1-0.3,0.1-0.8,0.4-1c0.9-0.9,1.7-1.7,2.7-2.5c0.8-0.5,1.6-0.5,2.2,0.1c0.5,0.7,0.5,1.4-0.1,2.1
		c-0.9,0.9-1.8,1.6-2.7,2.5c-0.4,0.4-1,0.4-1.5,0.1C35.6,22.4,35.3,21.9,35.2,21.3z"/>
</g>
</svg>
